<svg id="Camada_2" data-name="Camada 2" xmlns="http://www.w3.org/2000/svg" xmlns:xlink="http://www.w3.org/1999/xlink" viewBox="0 0 1650.19 601.88"><defs><style>.cls-1,.cls-2,.cls-3{stroke:#b71c1c;}.cls-1,.cls-10,.cls-11,.cls-2,.cls-3,.cls-4,.cls-5,.cls-6,.cls-7,.cls-9{stroke-miterlimit:10;}.cls-1{fill:url(#Gradiente_sem_nome_12);}.cls-2{fill:url(#Gradiente_sem_nome_15);}.cls-3{fill:url(#Gradiente_sem_nome_15-2);}.cls-11,.cls-4,.cls-6{fill:none;}.cls-4{stroke:url(#Gradiente_sem_nome_15-3);}.cls-5,.cls-7,.cls-9{fill:#2091d0;}.cls-5{stroke:url(#Gradiente_sem_nome_15-4);}.cls-6{stroke:url(#Gradiente_sem_nome_15-6);}.cls-7{stroke:url(#Gradiente_sem_nome_15-7);}.cls-10,.cls-8{fill:#ec2028;}.cls-9{stroke:url(#Gradiente_sem_nome_15-9);}.cls-10,.cls-11{stroke:#0772ba;}</style><linearGradient id="Gradiente_sem_nome_12" x1="7" y1="505.79" x2="399" y2="505.79" gradientUnits="userSpaceOnUse"><stop offset="0" stop-color="#2091d0"/><stop offset="1" stop-color="#1751a2"/></linearGradient><linearGradient id="Gradiente_sem_nome_15" x1="206.5" y1="236.79" x2="413.5" y2="236.79" xlink:href="#Gradiente_sem_nome_12"/><linearGradient id="Gradiente_sem_nome_15-2" x1="0.5" y1="301.79" x2="193.5" y2="301.79" xlink:href="#Gradiente_sem_nome_12"/><linearGradient id="Gradiente_sem_nome_15-3" x1="610" y1="544.05" x2="719.02" y2="544.05" xlink:href="#Gradiente_sem_nome_12"/><linearGradient id="Gradiente_sem_nome_15-4" x1="593" y1="544.01" x2="735.05" y2="544.01" xlink:href="#Gradiente_sem_nome_12"/><linearGradient id="Gradiente_sem_nome_15-6" x1="761.93" y1="543.98" x2="872" y2="543.98" xlink:href="#Gradiente_sem_nome_12"/><linearGradient id="Gradiente_sem_nome_15-7" x1="746.96" y1="544.03" x2="888.02" y2="544.03" xlink:href="#Gradiente_sem_nome_12"/><linearGradient id="Gradiente_sem_nome_15-9" x1="902.93" y1="544.03" x2="1037.01" y2="544.03" xlink:href="#Gradiente_sem_nome_12"/></defs><title>logo_nav</title><polygon class="cls-1" points="200 601.28 399 480.29 271 410.29 200 455.29 120 410.29 7 477.29 200 601.28"/><polygon class="cls-2" points="413.5 472.79 412.5 64.78 275.5 0.79 275.5 184.78 206.5 137.78 206.5 272.79 282.5 316.79 282.5 401.79 413.5 472.79"/><polygon class="cls-3" points="118.5 313.79 193.5 271.79 193.5 136.78 0.5 250.78 0.5 466.79 118.5 401.79 118.5 313.79"/><path class="cls-4" d="M718.5,520.5v45c-.67,2.55,0,16-15,21a4.81,4.81,0,0,1-2,0h-91v-85h92c4.61,0,16.38,6,16,17C718.48,519.14,718.56,519.81,718.5,520.5Z" transform="translate(-135 -176.71)"/><path class="cls-5" d="M734.5,514.5c1.23-19.53-20.11-29.67-28-30h-113v119h101c1,.06,2,0,3,0,21.37-.06,34.4-21.58,37-32v-53C734.62,517.1,734.42,515.77,734.5,514.5Zm-16,6v45c-.67,2.55,0,16-15,21a4.81,4.81,0,0,1-2,0h-91v-85h92c4.61,0,16.38,6,16,17C718.48,519.14,718.56,519.81,718.5,520.5Z" transform="translate(-135 -176.71)"/><path class="cls-4" d="M718.5,520.5v45c-.67,2.55,0,16-15,21a4.81,4.81,0,0,1-2,0h-91v-85h92c4.61,0,16.38,6,16,17C718.48,519.14,718.56,519.81,718.5,520.5Z" transform="translate(-135 -176.71)"/><path class="cls-6" d="M871.5,527.5v42c0,2-2,17-20,17h-73c-15-.59-16.47-14.16-16-27,0-.33,0-.66,0-1v-41c.14-6.88,8.48-16.72,27-16,1,0,2,0,3,0h66c6.36.84,13.2,9.37,13,21C871.47,524.5,871.5,525.5,871.5,527.5Z" transform="translate(-135 -176.71)"/><path class="cls-7" d="M887.5,510.5c-.06-16.42-19.07-26-27-26h-75c-1-.06-2,0-3,0-22.72-.11-34.57,18.42-35,28v50c0,.67,0,1.34,0,2-.88,24.59,12.25,38.87,25,39h79a37.89,37.89,0,0,0,5,0c20.25-.86,30.8-15.94,31-22v-69C887.54,511.82,887.5,511.16,887.5,510.5Zm-16,17v42c0,2-2,17-20,17h-73c-15-.59-16.47-14.16-16-27,0-.33,0-.66,0-1v-41c.14-6.88,8.48-16.72,27-16,1,0,2,0,3,0h66c6.36.84,13.2,9.37,13,21C871.47,524.5,871.5,525.5,871.5,527.5Z" transform="translate(-135 -176.71)"/><path class="cls-6" d="M871.5,527.5v42c0,2-2,17-20,17h-73c-15-.59-16.47-14.16-16-27,0-.33,0-.66,0-1v-41c.14-6.88,8.48-16.72,27-16,1,0,2,0,3,0h66c6.36.84,13.2,9.37,13,21C871.47,524.5,871.5,525.5,871.5,527.5Z" transform="translate(-135 -176.71)"/><path class="cls-8" d="M1151.5,602.5l-76,1c-1,.09-2-.08-3,0-18.82,1.59-28.91-20.9-28-30v-15h18v11c0,.34,0,.67,0,1-.08,11.39,8,16.92,13,16h62c.34,0,.67,0,1,0,10.09.69,16.31-5,19-11v-14a6.67,6.67,0,0,0,0-1c-.35-6-7.52-8.34-9-8h-80c-.68,0-1.35,0-2,0-15,.8-22.31-18.2-22-25v-17c0-.34,0-.67,0-1-.87-15.6,16.28-25.08,28-25h63c1-.05,2,0,3,0,20-.36,29.85,10.39,30,18v22h-17v-9c0-.34,0-.68,0-1,1.09-8.08-5.13-12.84-10-13h-56c-.66,0-1.32,0-2,0-10.85-.67-18.67,3.95-21,9v15a5.36,5.36,0,0,0,0,2c.89,4.83,7.2,8.22,15,8h75a24.35,24.35,0,0,1,23,18v23c0,.34,0,.67,0,1C1176,592.85,1162,602.54,1151.5,602.5Z" transform="translate(-135 -176.71)"/><path class="cls-9" d="M1036.5,582.5c.13,13.57-16.33,21-25,21h-75a35.56,35.56,0,0,1-4,0c-20-.21-29.65-23.82-29-30v-61c0-.68,0-1.35,0-2-1.3-15.88,15.38-25.63,25-26h80c15.52-.23,23.83,9.22,25,18v28h-17v-18a9.52,9.52,0,0,0,0-2c-.2-6.86-11.7-9.13-13-9h-59c-.56,0-1.64.05-3,0-7.56-.29-18.58,2.78-20,10a7.28,7.28,0,0,0,0,3L921,566a14.11,14.11,0,0,0,0,5c2.38,13.76,18.33,15.63,19,15l61.5.5a11.55,11.55,0,0,0,3,0c9.21-1.11,13-11.5,13-13v-16h19v24C1036.52,581.84,1036.5,582.17,1036.5,582.5Z" transform="translate(-135 -176.71)"/><path class="cls-8" d="M1316.5,506.5c0,.33,0,.66,0,1v39c-.55,7.53-8.92,18.12-24,17-.65,0-1.32,0-2,0h-42v-17h37c1.75.51,13.56-1.17,14-7a4.77,4.77,0,0,0,0-1v-28c.09-4.15-5.21-9.57-16-9-.68,0-1.35,0-2,0h-78v97h-17v-114h110C1306.59,485.33,1317.5,494.41,1316.5,506.5Z" transform="translate(-135 -176.71)"/><rect class="cls-10" x="1197.5" y="307.79" width="18" height="113"/><path class="cls-10" d="M1514.5,516.5c.49-21.2-18.46-32.16-26-32h-116v119h104c.67,0,1.34,0,2,0,17.65.71,31.4-12.19,36-25v-57C1514.66,519.73,1514.46,518.07,1514.5,516.5Zm-17,7c0,.33,0,.66,0,1v41c-.26,8-10.11,22.9-28,22-1,0-2,.07-3,0h-77v-86h88C1486.19,502.14,1498.07,510.24,1497.5,523.5Z" transform="translate(-135 -176.71)"/><path class="cls-11" d="M1497.5,523.5c0,.33,0,.66,0,1v41c-.26,8-10.11,22.9-28,22-1,0-2,.07-3,0h-77v-86h88C1486.19,502.14,1498.07,510.24,1497.5,523.5Z" transform="translate(-135 -176.71)"/><path class="cls-11" d="M1497.5,523.5c0,.33,0,.66,0,1v41c-.26,8-10.11,22.9-28,22-1,0-2,.07-3,0h-77v-86h88C1486.19,502.14,1498.07,510.24,1497.5,523.5Z" transform="translate(-135 -176.71)"/><polygon class="cls-10" points="1413.5 324.79 1413.5 404.79 1503.5 404.79 1503.5 420.79 1395.5 420.79 1395.5 307.79 1503.5 307.79 1503.5 324.79 1413.5 324.79"/><rect class="cls-10" x="1469.5" y="347.79" width="29" height="22"/><path class="cls-8" d="M1784.5,510.5v87h-17v-29c.44-1.42-1.22-10.7-7-11a5.56,5.56,0,0,0-1,0h-20v-17h28v-25c.45-2.5-2.54-14.67-14-14a33.19,33.19,0,0,0-4,0h-78v96h-17v-113h104c1.91.51,23.71,6.62,26,21A16.38,16.38,0,0,1,1784.5,510.5Z" transform="translate(-135 -176.71)"/><polygon class="cls-11" points="200 601.28 399 480.29 271 410.29 200 455.29 120 410.29 7 477.29 200 601.28"/><polygon class="cls-11" points="413.5 472.79 412.5 64.78 275.5 0.79 275.5 184.78 206.5 137.78 206.5 272.79 282.5 316.79 282.5 401.79 413.5 472.79"/><polygon class="cls-11" points="118.5 313.79 193.5 271.79 193.5 136.78 0.5 250.78 0.5 466.79 118.5 401.79 118.5 313.79"/><path class="cls-11" d="M718.5,520.5v45c-.67,2.55,0,16-15,21a4.81,4.81,0,0,1-2,0h-91v-85h92c4.61,0,16.38,6,16,17C718.48,519.14,718.56,519.81,718.5,520.5Z" transform="translate(-135 -176.71)"/><path class="cls-11" d="M734.5,514.5c1.23-19.53-20.11-29.67-28-30h-113v119h101c1,.06,2,0,3,0,21.37-.06,34.4-21.58,37-32v-53C734.62,517.1,734.42,515.77,734.5,514.5Zm-16,6v45c-.67,2.55,0,16-15,21a4.81,4.81,0,0,1-2,0h-91v-85h92c4.61,0,16.38,6,16,17C718.48,519.14,718.56,519.81,718.5,520.5Z" transform="translate(-135 -176.71)"/><path class="cls-11" d="M718.5,520.5v45c-.67,2.55,0,16-15,21a4.81,4.81,0,0,1-2,0h-91v-85h92c4.61,0,16.38,6,16,17C718.48,519.14,718.56,519.81,718.5,520.5Z" transform="translate(-135 -176.71)"/><path class="cls-11" d="M871.5,527.5v42c0,2-2,17-20,17h-73c-15-.59-16.47-14.16-16-27,0-.33,0-.66,0-1v-41c.14-6.88,8.48-16.72,27-16,1,0,2,0,3,0h66c6.36.84,13.2,9.37,13,21C871.47,524.5,871.5,525.5,871.5,527.5Z" transform="translate(-135 -176.71)"/><path class="cls-11" d="M887.5,510.5c-.06-16.42-19.07-26-27-26h-75c-1-.06-2,0-3,0-22.72-.11-34.57,18.42-35,28v50c0,.67,0,1.34,0,2-.88,24.59,12.25,38.87,25,39h79a37.89,37.89,0,0,0,5,0c20.25-.86,30.8-15.94,31-22v-69C887.54,511.82,887.5,511.16,887.5,510.5Zm-16,17v42c0,2-2,17-20,17h-73c-15-.59-16.47-14.16-16-27,0-.33,0-.66,0-1v-41c.14-6.88,8.48-16.72,27-16,1,0,2,0,3,0h66c6.36.84,13.2,9.37,13,21C871.47,524.5,871.5,525.5,871.5,527.5Z" transform="translate(-135 -176.71)"/><path class="cls-11" d="M871.5,527.5v42c0,2-2,17-20,17h-73c-15-.59-16.47-14.16-16-27,0-.33,0-.66,0-1v-41c.14-6.88,8.48-16.72,27-16,1,0,2,0,3,0h66c6.36.84,13.2,9.37,13,21C871.47,524.5,871.5,525.5,871.5,527.5Z" transform="translate(-135 -176.71)"/><path class="cls-11" d="M1151.5,602.5l-76,1c-1,.09-2-.08-3,0-18.82,1.59-28.91-20.9-28-30v-15h18v11c0,.34,0,.67,0,1-.08,11.39,8,16.92,13,16h62c.34,0,.67,0,1,0,10.09.69,16.31-5,19-11v-14a6.67,6.67,0,0,0,0-1c-.35-6-7.52-8.34-9-8h-80c-.68,0-1.35,0-2,0-15,.8-22.31-18.2-22-25v-17c0-.34,0-.67,0-1-.87-15.6,16.28-25.08,28-25h63c1-.05,2,0,3,0,20-.36,29.85,10.39,30,18v22h-17v-9c0-.34,0-.68,0-1,1.09-8.08-5.13-12.84-10-13h-56c-.66,0-1.32,0-2,0-10.85-.67-18.67,3.95-21,9v15a5.36,5.36,0,0,0,0,2c.89,4.83,7.2,8.22,15,8h75a24.35,24.35,0,0,1,23,18v23c0,.34,0,.67,0,1C1176,592.85,1162,602.54,1151.5,602.5Z" transform="translate(-135 -176.71)"/><path class="cls-11" d="M1036.5,582.5c.13,13.57-16.33,21-25,21h-75a35.56,35.56,0,0,1-4,0c-20-.21-29.65-23.82-29-30v-61c0-.68,0-1.35,0-2-1.3-15.88,15.38-25.63,25-26h80c15.52-.23,23.83,9.22,25,18v28h-17v-18a9.52,9.52,0,0,0,0-2c-.2-6.86-11.7-9.13-13-9h-59c-.56,0-1.64.05-3,0-7.56-.29-18.58,2.78-20,10a7.28,7.28,0,0,0,0,3L921,566a14.11,14.11,0,0,0,0,5c2.38,13.76,18.33,15.63,19,15l61.5.5a11.55,11.55,0,0,0,3,0c9.21-1.11,13-11.5,13-13v-16h19v24C1036.52,581.84,1036.5,582.17,1036.5,582.5Z" transform="translate(-135 -176.71)"/><path class="cls-11" d="M1316.5,506.5c0,.33,0,.66,0,1v39c-.55,7.53-8.92,18.12-24,17-.65,0-1.32,0-2,0h-42v-17h37c1.75.51,13.56-1.17,14-7a4.77,4.77,0,0,0,0-1v-28c.09-4.15-5.21-9.57-16-9-.68,0-1.35,0-2,0h-78v97h-17v-114h110C1306.59,485.33,1317.5,494.41,1316.5,506.5Z" transform="translate(-135 -176.71)"/><rect class="cls-11" x="1197.5" y="307.79" width="18" height="113"/><path class="cls-11" d="M1514.5,516.5c.49-21.2-18.46-32.16-26-32h-116v119h104c.67,0,1.34,0,2,0,17.65.71,31.4-12.19,36-25v-57C1514.66,519.73,1514.46,518.07,1514.5,516.5Zm-17,7c0,.33,0,.66,0,1v41c-.26,8-10.11,22.9-28,22-1,0-2,.07-3,0h-77v-86h88C1486.19,502.14,1498.07,510.24,1497.5,523.5Z" transform="translate(-135 -176.71)"/><path class="cls-11" d="M1497.5,523.5c0,.33,0,.66,0,1v41c-.26,8-10.11,22.9-28,22-1,0-2,.07-3,0h-77v-86h88C1486.19,502.14,1498.07,510.24,1497.5,523.5Z" transform="translate(-135 -176.71)"/><path class="cls-11" d="M1497.5,523.5c0,.33,0,.66,0,1v41c-.26,8-10.11,22.9-28,22-1,0-2,.07-3,0h-77v-86h88C1486.19,502.14,1498.07,510.24,1497.5,523.5Z" transform="translate(-135 -176.71)"/><polygon class="cls-11" points="1413.5 324.79 1413.5 404.79 1503.5 404.79 1503.5 420.79 1395.5 420.79 1395.5 307.79 1503.5 307.79 1503.5 324.79 1413.5 324.79"/><rect class="cls-11" x="1469.5" y="347.79" width="29" height="22"/><path class="cls-11" d="M1784.5,510.5v87h-17v-29c.44-1.42-1.22-10.7-7-11a5.56,5.56,0,0,0-1,0h-20v-17h28v-25c.45-2.5-2.54-14.67-14-14a33.19,33.19,0,0,0-4,0h-78v96h-17v-113h104c1.91.51,23.71,6.62,26,21A16.38,16.38,0,0,1,1784.5,510.5Z" transform="translate(-135 -176.71)"/></svg>